{
    "asset" : {
        "generator" : "Khronos glTF Blender I/O v1.2.75",
        "version" : "2.0"
    },
    "scene" : 0,
    "scenes" : [
        {
            "name" : "Scene",
            "nodes" : [
                4,
                5,
                6,
                7,
                8
            ]
        }
    ],
    "nodes" : [
        {
            "mesh" : 0,
            "name" : "Mesh_0",
            "scale" : [
                0.9475424289703369,
                0.7770282626152039,
                0.9430156350135803
            ],
            "translation" : [
                471.256103515625,
                -272.2436828613281,
                535.7843627929688
            ]
        },
        {
            "children" : [
                0
            ],
            "name" : "Node_3"
        },
        {
            "children" : [
                1
            ],
            "name" : "chair_low.obj.cleaner.gles",
            "translation" : [
                -253.68113708496094,
                910.559326171875,
                -417.56439208984375
            ]
        },
        {
            "children" : [
                2
            ],
            "name" : "RootNode (model correction matrix)",
            "scale" : [
                0.001086877891793847,
                0.001086877891793847,
                0.001086877891793847
            ]
        },
        {
            "children" : [
                3
            ],
            "name" : "RootNode (gltf orientation matrix)",
            "rotation" : [
                -0.7071067690849304,
                0,
                0,
                0.7071067690849304
            ],
            "translation" : [
                -0.23647746443748474,
                -0.12849061191082,
                0.693771243095398
            ]
        },
        {
            "name" : "Light.001",
            "rotation" : [
                0.16907575726509094,
                0.7558803558349609,
                -0.27217137813568115,
                0.570947527885437
            ],
            "translation" : [
                4.076245307922363,
                5.903861999511719,
                -1.0054539442062378
            ]
        },
        {
            "name" : "Camera.001",
            "rotation" : [
                0.483536034822464,
                0.33687159419059753,
                -0.20870360732078552,
                0.7804827094078064
            ],
            "translation" : [
                7.358891487121582,
                4.958309173583984,
                6.925790786743164
            ]
        },
        {
            "name" : "Light",
            "rotation" : [
                0.16907575726509094,
                0.7558803558349609,
                -0.27217137813568115,
                0.570947527885437
            ],
            "translation" : [
                4.076245307922363,
                5.903861999511719,
                -1.0054539442062378
            ]
        },
        {
            "name" : "Camera",
            "rotation" : [
                0.483536034822464,
                0.33687159419059753,
                -0.20870360732078552,
                0.7804827094078064
            ],
            "translation" : [
                7.358891487121582,
                4.958309173583984,
                6.925790786743164
            ]
        }
    ],
    "materials" : [
        {
            "doubleSided" : true,
            "name" : "lambert7SG",
            "occlusionTexture" : {
                "index" : 0,
                "texCoord" : 0
            },
            "pbrMetallicRoughness" : {}
        }
    ],
    "meshes" : [
        {
            "name" : "Mesh_0",
            "primitives" : [
                {
                    "attributes" : {
                        "POSITION" : 0,
                        "NORMAL" : 1,
                        "TEXCOORD_0" : 2
                    },
                    "indices" : 3,
                    "material" : 0
                }
            ]
        }
    ],
    "textures" : [
        {
            "source" : 0
        }
    ],
    "images" : [
        {
            "bufferView" : 4,
            "mimeType" : "image/png",
            "name" : "lambert7SG_occlusion"
        }
    ],
    "accessors" : [
        {
            "bufferView" : 0,
            "componentType" : 5126,
            "count" : 1666,
            "max" : [
                257.9122314453125,
                225.2769317626953,
                910.859130859375
            ],
            "min" : [
                -249.45001220703125,
                -265.0997619628906,
                25.352088928222656
            ],
            "type" : "VEC3"
        },
        {
            "bufferView" : 1,
            "componentType" : 5126,
            "count" : 1666,
            "type" : "VEC3"
        },
        {
            "bufferView" : 2,
            "componentType" : 5126,
            "count" : 1666,
            "type" : "VEC2"
        },
        {
            "bufferView" : 3,
            "componentType" : 5123,
            "count" : 6420,
            "type" : "SCALAR"
        }
    ],
    "bufferViews" : [
        {
            "buffer" : 0,
            "byteLength" : 19992,
            "byteOffset" : 0
        },
        {
            "buffer" : 0,
            "byteLength" : 19992,
            "byteOffset" : 19992
        },
        {
            "buffer" : 0,
            "byteLength" : 13328,
            "byteOffset" : 39984
        },
        {
            "buffer" : 0,
            "byteLength" : 12840,
            "byteOffset" : 53312
        },
        {
            "buffer" : 0,
            "byteLength" : 539553,
            "byteOffset" : 66152
        }
    ],
    "buffers" : [
        {
            "byteLength" : 605708,
            "uri" : "data:application/octet-stream;base64,"
        }
    ]
}
